{"title":"Bermuda.Tentacles.2014.480p.BRRip.XviD.AC3-N3kr4","uid":10998346,"size":1771660798,"categoryP":"video","categoryS":"hd___movies","magnet":"?xt=urn:btih:db6e4c208a58d68c34a2aff0e3b31975ca435b4d&amp;dn=Bermuda.Tentacles.2014.480p.BRRip.XviD.AC3-N3kr4&amp;tr=udp%3A%2F%2Ftracker.openbittorrent.com%3A80&amp;tr=udp%3A%2F%2Fopen.demonii.com%3A1337&amp;tr=udp%3A%2F%2Ftracker.coppersurfer.tk%3A6969&amp;tr=udp%3A%2F%2Fexodus.desync.com%3A6969","seeders":1,"leechers":0,"uploader":"Falcon.G13","files":2,"time":1410101554,"description":" &lt;a href=&quot;http://i.imgur.com/lcWbAMY.jpg&quot; rel=&quot;nofollow&quot; target=&quot;_NEW&quot;&gt;http://i.imgur.com/lcWbAMY.jpg&lt;/a&gt; &lt;a href=&quot;\nhttp://i.imgur.com/Za0o9PS.jpg&quot; rel=&quot;nofollow&quot; target=&quot;_NEW&quot;&gt;\nhttp://i.imgur.com/Za0o9PS.jpg&lt;/a&gt; &lt;a href=&quot;\nhttp://i.imgur.com/vWUwbn7.jpg&quot; rel=&quot;nofollow&quot; target=&quot;_NEW&quot;&gt;\nhttp://i.imgur.com/vWUwbn7.jpg&lt;/a&gt; &lt;a href=&quot;\nhttp://i.imgur.com/ad0zVpv.jpg&quot; rel=&quot;nofollow&quot; target=&quot;_NEW&quot;&gt;\nhttp://i.imgur.com/ad0zVpv.jpg&lt;/a&gt; &lt;a href=&quot;\nhttp://i.imgur.com/JQTgKIK.jpg&quot; rel=&quot;nofollow&quot; target=&quot;_NEW&quot;&gt;\nhttp://i.imgur.com/JQTgKIK.jpg&lt;/a&gt; &lt;a href=&quot;\nhttp://i.imgur.com/a0XSTQF.jpg&quot; rel=&quot;nofollow&quot; target=&quot;_NEW&quot;&gt;\nhttp://i.imgur.com/a0XSTQF.jpg&lt;/a&gt; &lt;a href=&quot;\nhttp://i.imgur.com/Cufccg1.jpg&quot; rel=&quot;nofollow&quot; target=&quot;_NEW&quot;&gt;\nhttp://i.imgur.com/Cufccg1.jpg&lt;/a&gt; &lt;a href=&quot;\nhttp://i.imgur.com/mMTsCo0.jpg&quot; rel=&quot;nofollow&quot; target=&quot;_NEW&quot;&gt;\nhttp://i.imgur.com/mMTsCo0.jpg&lt;/a&gt; &lt;a href=&quot;\nhttp://i.imgur.com/UEneZaz.jpg&quot; rel=&quot;nofollow&quot; target=&quot;_NEW&quot;&gt;\nhttp://i.imgur.com/UEneZaz.jpg&lt;/a&gt; &lt;a href=&quot;\nhttp://i.imgur.com/aBhJxo0.jpg&quot; rel=&quot;nofollow&quot; target=&quot;_NEW&quot;&gt;\nhttp://i.imgur.com/aBhJxo0.jpg&lt;/a&gt;\n\nGeneral\nComplete name : Bermuda.Tentacles.2014.480p.BRRip.XviD.AC3-N3kr4.avi\nFormat : AVI\nFormat/Info : Audio Video Interleave\nFormat profile : OpenDML\nFile size : 1.65 GiB\nDuration : 1h 29mn\nOverall bit rate : 2 647 Kbps\nWriting application : Lavf55.7.100\n\nVideo\nID : 0\nFormat : MPEG-4 Visual\nFormat profile : Advanced Simple@L1\nFormat settings, BVOP : No\nFormat settings, QPel : No\nFormat settings, GMC : No warppoints\nFormat settings, Matrix : Default (H.263)\nCodec ID : XVID\nCodec ID/Hint : XviD\nDuration : 1h 29mn\nBit rate : 1 996 Kbps\nWidth : 720 pixels\nHeight : 400 pixels\nDisplay aspect ratio : 16:9\nFrame rate : 23.976 fps\nColor space : YUV\nChroma subsampling : 4:2:0\nBit depth : 8 bits\nScan type : Progressive\nCompression mode : Lossy\nBits/(Pixel*Frame) : 0.289\nStream size : 1.24 GiB (75%)\nWriting library : Lavc55.12.100\n\nAudio\nID : 1\nFormat : AC-3\nFormat/Info : Audio Coding 3\nMode extension : CM (complete main)\nFormat settings, Endianness : Big\nCodec ID : 2000\nDuration : 1h 29mn\nBit rate mode : Constant\nBit rate : 640 Kbps\nChannel(s) : 6 channels\nChannel positions : Front: L C R, Side: L R, LFE\nSampling rate : 48.0 KHz\nBit depth : 16 bits\nCompression mode : Lossy\nStream size : 408 MiB (24%)\nAlignment : Aligned on interleaves\nInterleave, duration : 32 ms (0.77 video frame)\nInterleave, preload duration : 32 ms","torrent":{"xt":"urn:btih:db6e4c208a58d68c34a2aff0e3b31975ca435b4d","amp;dn":"Bermuda.Tentacles.2014.480p.BRRip.XviD.AC3-N3kr4","amp;tr":["udp%3A%2F%2Ftracker.openbittorrent.com%3A80","udp%3A%2F%2Fopen.demonii.com%3A1337","udp%3A%2F%2Ftracker.coppersurfer.tk%3A6969","udp%3A%2F%2Fexodus.desync.com%3A6969"],"infoHash":"db6e4c208a58d68c34a2aff0e3b31975ca435b4d","infoHashBuffer":{"type":"Buffer","data":[219,110,76,32,138,88,214,140,52,162,175,240,227,179,25,117,202,67,91,77]},"announce":[],"urlList":[]}}